<?xml version="1.0" encoding="utf-8"?>
<!-- Generator: Adobe Illustrator 15.0.2, SVG Export Plug-In  -->
<!DOCTYPE svg PUBLIC "-//W3C//DTD SVG 1.1//EN" "http://www.w3.org/Graphics/SVG/1.1/DTD/svg11.dtd" [
	<!ENTITY ns_flows "http://ns.adobe.com/Flows/1.0/">
]>
<svg version="1.1"
	 xmlns="http://www.w3.org/2000/svg" xmlns:xlink="http://www.w3.org/1999/xlink" xmlns:a="http://ns.adobe.com/AdobeSVGViewerExtensions/3.0/"
	 x="0px" y="0px" width="920px" height="572px" viewBox="-8.381 -8.068 920 572" enable-background="new -8.381 -8.068 920 572"
	 xml:space="preserve">
<defs>
<style type="text/css">
	a:hover {
		color: #321;
	}
</style>
</defs>
<rect x="16.479" y="236.512" fill="#FFD4F0" stroke="#231F20" stroke-miterlimit="10" width="58.553" height="27"/>
<rect x="16.479" y="264.266" fill="#FFFFFF" stroke="#231F20" stroke-miterlimit="10" width="58.553" height="28.951"/>
<rect x="16.479" y="293.217" fill="#FFFFFF" stroke="#231F20" stroke-miterlimit="10" width="78.979" height="71.859"/>
<rect x="16.479" y="365.076" fill="#FFFFFF" stroke="#231F20" stroke-miterlimit="10" width="78.979" height="71.859"/>
<rect x="16.479" y="436.936" fill="#E6FCFB" stroke="#231F20" stroke-miterlimit="10" width="78.979" height="102.439"/>
<rect x="143.118" y="436.936" fill="#E6FCFB" stroke="#231F20" stroke-miterlimit="10" width="78.979" height="102.439"/>
<rect x="222.097" y="436.936" fill="#E6FCFB" stroke="#231F20" stroke-miterlimit="10" width="78.979" height="102.439"/>
<rect x="301.076" y="436.936" fill="#E6FCFB" stroke="#231F20" stroke-miterlimit="10" width="78.979" height="102.439"/>
<rect x="454.949" y="436.936" fill="#E6FCFB" stroke="#231F20" stroke-miterlimit="10" width="78.979" height="102.439"/>
<rect x="533.928" y="436.936" fill="#E6FCFB" stroke="#231F20" stroke-miterlimit="10" width="78.979" height="102.439"/>
<rect x="612.907" y="436.936" fill="#E6FCFB" stroke="#231F20" stroke-miterlimit="10" width="78.979" height="102.439"/>
<rect x="807.632" y="436.936" fill="#FFFFFF" stroke="#231F20" stroke-miterlimit="10" width="78.979" height="102.439"/>
<rect x="533.928" y="20.408" fill="#E6FCFB" stroke="#231F20" stroke-miterlimit="10" width="157.958" height="73.688"/>
<rect x="533.928" y="94.096" fill="#E6FCFB" stroke="#231F20" stroke-miterlimit="10" width="157.958" height="73.688"/>
<rect x="261.586" y="20.408" fill="#E6FCFB" stroke="#231F20" stroke-miterlimit="10" width="126.639" height="73.688"/>
<rect x="261.586" y="94.096" fill="#E6FCFB" stroke="#231F20" stroke-miterlimit="10" width="126.639" height="73.688"/>
<rect x="16.479" y="15.117" fill="#F9F6D2" stroke="#231F20" stroke-miterlimit="10" width="58.553" height="36.766"/>
<rect x="16.479" y="51.883" fill="#F9F6D2" stroke="#231F20" stroke-miterlimit="10" width="58.553" height="36.766"/>
<rect x="16.479" y="88.649" fill="#F9F6D2" stroke="#231F20" stroke-miterlimit="10" width="58.553" height="36.766"/>
<rect x="16.479" y="125.416" fill="#F9F6D2" stroke="#231F20" stroke-miterlimit="10" width="58.553" height="36.766"/>
<rect x="16.479" y="162.182" fill="#F9F6D2" stroke="#231F20" stroke-miterlimit="10" width="58.553" height="36.766"/>
<rect x="16.479" y="198.948" fill="#F9F6D2" stroke="#231F20" stroke-miterlimit="10" width="58.553" height="36.766"/>
<rect x="828.058" y="15.272" fill="#F9F6D2" stroke="#231F20" stroke-miterlimit="10" width="58.553" height="36.766"/>
<rect x="828.058" y="52.039" fill="#F9F6D2" stroke="#231F20" stroke-miterlimit="10" width="58.553" height="36.766"/>
<rect x="828.058" y="88.805" fill="#F9F6D2" stroke="#231F20" stroke-miterlimit="10" width="58.553" height="36.767"/>
<rect x="828.058" y="125.571" fill="#F9F6D2" stroke="#231F20" stroke-miterlimit="10" width="58.553" height="36.766"/>
<rect x="828.058" y="162.337" fill="#F9F6D2" stroke="#231F20" stroke-miterlimit="10" width="58.553" height="36.766"/>
<rect x="828.058" y="199.104" fill="#F9F6D2" stroke="#231F20" stroke-miterlimit="10" width="58.553" height="36.766"/>
<rect x="828.058" y="236.667" fill="#FFD4F0" stroke="#231F20" stroke-miterlimit="10" width="58.553" height="27"/>
<rect x="807.632" y="293.373" fill="#FFFFFF" stroke="#231F20" stroke-miterlimit="10" width="78.979" height="71.859"/>
<rect x="807.632" y="365.232" fill="#FFFFFF" stroke="#231F20" stroke-miterlimit="10" width="78.979" height="71.859"/>
<g>
	<g>
		<path fill="#231F20" d="M0,1.5c0,26.874,0,53.748,0,80.622c0,60.137,0,120.273,0,180.41c0,62.672,0,125.344,0,188.016
			c0,34.479,0,68.958,0,103.438c0,0.848,0,1.696,0,2.544c0,1.935,3,1.935,3,0c0-26.874,0-53.748,0-80.622
			c0-60.137,0-120.273,0-180.41c0-62.672,0-125.344,0-188.016C3,73.002,3,38.523,3,4.044C3,3.196,3,2.348,3,1.5
			C3-0.435,0-0.435,0,1.5L0,1.5z"/>
	</g>
</g>
<g>
	<g>
		<path fill="#231F20" d="M181.927,0C132.006,0,82.085,0,32.165,0C21.943,0,11.722,0,1.5,0c-1.935,0-1.935,3,0,3
			c49.921,0,99.842,0,149.763,0c10.222,0,20.443,0,30.665,0C183.862,3,183.862,0,181.927,0L181.927,0z"/>
	</g>
</g>
<g>
	<g>
		<path fill="#231F20" d="M411.375,0c-49.313,0-98.626,0-147.939,0c-16.729,0-33.459,0-50.188,0c-1.935,0-1.935,3,0,3
			c49.313,0,98.626,0,147.939,0c16.729,0,33.459,0,50.188,0C413.309,3,413.309,0,411.375,0L411.375,0z"/>
	</g>
</g>
<g>
	<g>
		<path fill="#231F20" d="M709.588,0c-48.438,0-96.875,0-145.313,0c-23.278,0-46.557,0-69.836,0c-1.935,0-1.935,3,0,3
			c48.438,0,96.875,0,145.313,0c23.278,0,46.558,0,69.836,0C711.522,3,711.522,0,709.588,0L709.588,0z"/>
	</g>
</g>
<g>
	<g>
		<path fill="#231F20" d="M901.59,0c-49.204,0-98.407,0-147.611,0c-3.449,0-6.898,0-10.348,0c-1.935,0-1.935,3,0,3
			c49.204,0,98.407,0,147.611,0c3.449,0,6.898,0,10.348,0C903.524,3,903.524,0,901.59,0L901.59,0z"/>
	</g>
</g>
<g>
	<g>
		<path fill="#231F20" d="M900.09,2.088c0,26.904,0,53.808,0,80.712c0,60.174,0,120.349,0,180.523c0,62.639,0,125.278,0,187.917
			c0,34.298,0,68.595,0,102.893c0,0.799,0,1.599,0,2.397c0,1.935,3,1.935,3,0c0-26.904,0-53.808,0-80.712
			c0-60.175,0-120.349,0-180.523c0-62.639,0-125.278,0-187.917c0-34.297,0-68.595,0-102.892c0-0.799,0-1.598,0-2.397
			C903.09,0.153,900.09,0.153,900.09,2.088L900.09,2.088z"/>
	</g>
</g>
<g>
	<g>
		<path fill="#231F20" d="M901.59,555.029c-17.779,0-35.558,0-53.337,0c-45.55,0-91.101,0-136.65,0c-61.64,0-123.28,0-184.92,0
			c-66.05,0-132.1,0-198.149,0c-58.779,0-117.557,0-176.335,0c-39.826,0-79.653,0-119.479,0c-10.406,0-20.813,0-31.219,0
			c-1.935,0-1.935,3,0,3c17.779,0,35.558,0,53.337,0c45.55,0,91.1,0,136.65,0c61.64,0,123.28,0,184.92,0c66.05,0,132.1,0,198.149,0
			c58.778,0,117.557,0,176.335,0c39.826,0,79.652,0,119.479,0c10.406,0,20.813,0,31.219,0
			C903.524,558.029,903.524,555.029,901.59,555.029L901.59,555.029z"/>
	</g>
</g>
<g>
	<g>
		<path fill="#231F20" d="M180.427,1.5c0,46.851,0,93.702,0,140.553c0,0.583,0,1.165,0,1.748c0,1.935,3,1.935,3,0
			c0-46.851,0-93.702,0-140.553c0-0.583,0-1.165,0-1.748C183.427-0.435,180.427-0.435,180.427,1.5L180.427,1.5z"/>
	</g>
</g>
<g>
	<g>
		<path fill="#231F20" d="M211.747,1.5c0,46.851,0,93.701,0,140.552c0,0.583,0,1.165,0,1.748c0,1.935,3,1.935,3,0
			c0-46.851,0-93.701,0-140.552c0-0.583,0-1.165,0-1.748C214.747-0.435,211.747-0.435,211.747,1.5L211.747,1.5z"/>
	</g>
</g>
<g>
	<g>
		<path fill="#231F20" d="M409.875,1.5c0,46.413,0,92.827,0,139.24c0,0.368,0,0.736,0,1.104c0,1.935,3,1.935,3,0
			c0-46.413,0-92.827,0-139.24c0-0.368,0-0.736,0-1.104C412.875-0.435,409.875-0.435,409.875,1.5L409.875,1.5z"/>
	</g>
</g>
<g>
	<g>
		<path fill="#231F20" d="M492.938,1.5c0,46.85,0,93.701,0,140.551c0,0.583,0,1.165,0,1.748c0,1.935,3,1.935,3,0
			c0-46.85,0-93.701,0-140.551c0-0.583,0-1.165,0-1.748C495.938-0.435,492.938-0.435,492.938,1.5L492.938,1.5z"/>
	</g>
</g>
<g>
	<g>
		<path fill="#231F20" d="M708.088,1.5c0,46.414,0,92.827,0,139.241c0,0.368,0,0.736,0,1.104c0,1.935,3,1.935,3,0
			c0-46.414,0-92.827,0-139.241c0-0.368,0-0.736,0-1.104C711.088-0.435,708.088-0.435,708.088,1.5L708.088,1.5z"/>
	</g>
</g>
<g>
	<g>
		<path fill="#231F20" d="M742.131,1.5c0,46.414,0,92.827,0,139.241c0,0.368,0,0.736,0,1.104c0,1.935,3,1.935,3,0
			c0-46.414,0-92.827,0-139.241c0-0.368,0-0.736,0-1.104C745.131-0.435,742.131-0.435,742.131,1.5L742.131,1.5z"/>
	</g>
</g>
<g>
	<g>
		<path fill="#231F20" d="M213.247,142.454c-10.44,0-20.879,0-31.319,0c-1.935,0-1.935,3,0,3c10.44,0,20.879,0,31.319,0
			C215.181,145.454,215.181,142.454,213.247,142.454L213.247,142.454z"/>
	</g>
</g>
<g>
	<g>
		<path fill="#231F20" d="M494.438,142.298c-27.688,0-55.376,0-83.064,0c-1.935,0-1.935,3,0,3c27.688,0,55.376,0,83.064,0
			C496.372,145.298,496.372,142.298,494.438,142.298L494.438,142.298z"/>
	</g>
</g>
<g>
	<g>
		<path fill="#231F20" d="M743.631,140.346c-11.348,0-22.695,0-34.043,0c-1.935,0-1.935,3,0,3c11.348,0,22.695,0,34.043,0
			C745.565,143.346,745.565,140.346,743.631,140.346L743.631,140.346z"/>
	</g>
</g>

<rect x="19.88" y="267.19" fill="#FFFFFF" stroke="#231F20" stroke-miterlimit="10" width="5.448" height="23.102"/>
<rect x="25.328" y="267.19" fill="#FFFFFF" stroke="#231F20" stroke-miterlimit="10" width="5.447" height="23.102"/>
<rect x="30.775" y="267.19" fill="#FFFFFF" stroke="#231F20" stroke-miterlimit="10" width="5.448" height="23.102"/>
<rect x="36.223" y="267.19" fill="#FFFFFF" stroke="#231F20" stroke-miterlimit="10" width="5.447" height="23.102"/>
<rect x="41.67" y="267.19" fill="#FFFFFF" stroke="#231F20" stroke-miterlimit="10" width="5.447" height="23.102"/>
<rect x="47.118" y="267.19" fill="#FFFFFF" stroke="#231F20" stroke-miterlimit="10" width="5.448" height="23.102"/>
<rect x="52.565" y="267.19" fill="#FFFFFF" stroke="#231F20" stroke-miterlimit="10" width="5.447" height="23.102"/>
<rect x="58.013" y="267.19" fill="#FFFFFF" stroke="#231F20" stroke-miterlimit="10" width="5.448" height="23.102"/>
<rect x="63.46" y="267.19" fill="#FFFFFF" stroke="#231F20" stroke-miterlimit="10" width="5.447" height="23.102"/>
<rect x="68.908" y="267.19" fill="#FFFFFF" stroke="#231F20" stroke-miterlimit="10" width="5.448" height="23.102"/>
<rect x="227.262" y="225.292" fill="#FFFFFF" stroke="#231F20" stroke-miterlimit="10" width="40.735" height="78.26"/>
<rect x="230.948" y="247.325" fill="#FFFFFF" stroke="#231F20" stroke-miterlimit="10" width="33.362" height="5.447"/>
<rect x="230.948" y="252.772" fill="#FFFFFF" stroke="#231F20" stroke-miterlimit="10" width="33.362" height="5.448"/>
<rect x="230.948" y="258.22" fill="#FFFFFF" stroke="#231F20" stroke-miterlimit="10" width="33.362" height="5.447"/>
<rect x="230.948" y="263.667" fill="#FFFFFF" stroke="#231F20" stroke-miterlimit="10" width="33.362" height="5.448"/>
<rect x="230.948" y="269.115" fill="#FFFFFF" stroke="#231F20" stroke-miterlimit="10" width="33.362" height="5.447"/>
<rect x="230.948" y="274.562" fill="#FFFFFF" stroke="#231F20" stroke-miterlimit="10" width="33.362" height="5.448"/>
<rect x="230.948" y="280.01" fill="#FFFFFF" stroke="#231F20" stroke-miterlimit="10" width="33.362" height="5.447"/>
<rect x="230.948" y="285.457" fill="#FFFFFF" stroke="#231F20" stroke-miterlimit="10" width="33.362" height="5.448"/>
<rect x="230.948" y="290.905" fill="#FFFFFF" stroke="#231F20" stroke-miterlimit="10" width="33.362" height="5.447"/>
<rect x="230.948" y="296.352" fill="#FFFFFF" stroke="#231F20" stroke-miterlimit="10" width="33.362" height="5.448"/>
<rect x="230.948" y="230.982" fill="#FFFFFF" stroke="#231F20" stroke-miterlimit="10" width="33.362" height="5.448"/>
<rect x="230.948" y="236.43" fill="#FFFFFF" stroke="#231F20" stroke-miterlimit="10" width="33.362" height="5.447"/>
<rect x="230.948" y="241.877" fill="#FFFFFF" stroke="#231F20" stroke-miterlimit="10" width="33.362" height="5.448"/>
<rect x="529.959" y="229.984" fill="#FFFFFF" stroke="#231F20" stroke-miterlimit="10" width="40.735" height="78.26"/>
<rect x="533.646" y="252.019" fill="#FFFFFF" stroke="#231F20" stroke-miterlimit="10" width="33.362" height="5.447"/>
<rect x="533.646" y="257.465" fill="#FFFFFF" stroke="#231F20" stroke-miterlimit="10" width="33.362" height="5.447"/>
<rect x="533.646" y="262.912" fill="#FFFFFF" stroke="#231F20" stroke-miterlimit="10" width="33.362" height="5.447"/>
<rect x="533.646" y="268.359" fill="#FFFFFF" stroke="#231F20" stroke-miterlimit="10" width="33.362" height="5.45"/>
<rect x="533.646" y="273.809" fill="#FFFFFF" stroke="#231F20" stroke-miterlimit="10" width="33.362" height="5.447"/>
<rect x="533.646" y="279.255" fill="#FFFFFF" stroke="#231F20" stroke-miterlimit="10" width="33.362" height="5.447"/>
<rect x="533.646" y="284.702" fill="#FFFFFF" stroke="#231F20" stroke-miterlimit="10" width="33.362" height="5.447"/>
<rect x="533.646" y="290.149" fill="#FFFFFF" stroke="#231F20" stroke-miterlimit="10" width="33.362" height="5.45"/>
<rect x="533.646" y="295.599" fill="#FFFFFF" stroke="#231F20" stroke-miterlimit="10" width="33.362" height="5.447"/>
<rect x="533.646" y="301.045" fill="#FFFFFF" stroke="#231F20" stroke-miterlimit="10" width="33.362" height="5.447"/>
<rect x="533.646" y="235.675" fill="#FFFFFF" stroke="#231F20" stroke-miterlimit="10" width="33.362" height="5.447"/>
<rect x="533.646" y="241.122" fill="#FFFFFF" stroke="#231F20" stroke-miterlimit="10" width="33.362" height="5.447"/>
<rect x="533.646" y="246.569" fill="#FFFFFF" stroke="#231F20" stroke-miterlimit="10" width="33.362" height="5.45"/>
<rect x="91.713" y="88.805" fill="#FFFFFF" stroke="#231F20" stroke-miterlimit="10" width="70.468" height="73.377"/>
<rect x="752.142" y="94.252" fill="#FFFFFF" stroke="#231F20" stroke-miterlimit="10" width="63.66" height="73.376"/>
<text transform="matrix(1 0 0 1 107.7139 130.9399)" font-family="'SeoulHangangL'" font-size="13.6171">조교실</text>
<text transform="matrix(1 0 0 1 770.8662 137.7598)" font-family="'SeoulHangangL'" font-size="13.6171">과사</text>
<rect x="168.31" y="147.862" fill="#FFFFFF" stroke="#231F20" stroke-miterlimit="10" width="58.553" height="28.951"/>
<rect x="168.988" y="150.786" fill="#FFFFFF" stroke="#231F20" stroke-miterlimit="10" width="5.447" height="23.101"/>
<rect x="174.436" y="150.786" fill="#FFFFFF" stroke="#231F20" stroke-miterlimit="10" width="5.448" height="23.101"/>
<rect x="179.883" y="150.786" fill="#FFFFFF" stroke="#231F20" stroke-miterlimit="10" width="5.447" height="23.101"/>
<rect x="185.331" y="150.786" fill="#FFFFFF" stroke="#231F20" stroke-miterlimit="10" width="5.448" height="23.101"/>
<rect x="190.778" y="150.786" fill="#FFFFFF" stroke="#231F20" stroke-miterlimit="10" width="5.447" height="23.101"/>
<rect x="196.226" y="150.786" fill="#FFFFFF" stroke="#231F20" stroke-miterlimit="10" width="5.448" height="23.101"/>
<rect x="201.673" y="150.786" fill="#FFFFFF" stroke="#231F20" stroke-miterlimit="10" width="5.447" height="23.101"/>
<rect x="207.121" y="150.786" fill="#FFFFFF" stroke="#231F20" stroke-miterlimit="10" width="5.448" height="23.101"/>
<rect x="212.568" y="150.786" fill="#FFFFFF" stroke="#231F20" stroke-miterlimit="10" width="5.447" height="23.101"/>
<rect x="218.016" y="150.786" fill="#FFFFFF" stroke="#231F20" stroke-miterlimit="10" width="5.448" height="23.101"/>
<rect x="534.288" y="167.628" fill="#FFFFFF" stroke="#231F20" stroke-miterlimit="10" width="78.26" height="40.734"/>
<rect x="556.321" y="171.314" fill="#FFFFFF" stroke="#231F20" stroke-miterlimit="10" width="5.446" height="33.362"/>
<rect x="561.768" y="171.314" fill="#FFFFFF" stroke="#231F20" stroke-miterlimit="10" width="5.447" height="33.362"/>
<rect x="567.215" y="171.314" fill="#FFFFFF" stroke="#231F20" stroke-miterlimit="10" width="5.447" height="33.362"/>
<rect x="572.662" y="171.314" fill="#FFFFFF" stroke="#231F20" stroke-miterlimit="10" width="5.449" height="33.362"/>
<rect x="578.111" y="171.314" fill="#FFFFFF" stroke="#231F20" stroke-miterlimit="10" width="5.446" height="33.362"/>
<rect x="583.558" y="171.314" fill="#FFFFFF" stroke="#231F20" stroke-miterlimit="10" width="5.447" height="33.362"/>
<rect x="589.005" y="171.314" fill="#FFFFFF" stroke="#231F20" stroke-miterlimit="10" width="5.447" height="33.362"/>
<rect x="594.452" y="171.314" fill="#FFFFFF" stroke="#231F20" stroke-miterlimit="10" width="5.449" height="33.362"/>
<rect x="599.901" y="171.314" fill="#FFFFFF" stroke="#231F20" stroke-miterlimit="10" width="5.446" height="33.362"/>
<rect x="605.348" y="171.314" fill="#FFFFFF" stroke="#231F20" stroke-miterlimit="10" width="5.447" height="33.362"/>
<rect x="539.979" y="171.314" fill="#FFFFFF" stroke="#231F20" stroke-miterlimit="10" width="5.446" height="33.362"/>
<rect x="545.425" y="171.314" fill="#FFFFFF" stroke="#231F20" stroke-miterlimit="10" width="5.447" height="33.362"/>
<rect x="550.872" y="171.314" fill="#FFFFFF" stroke="#231F20" stroke-miterlimit="10" width="5.449" height="33.362"/>
<rect x="828.058" y="264.173" fill="#FFFFFF" stroke="#231F20" stroke-miterlimit="10" width="58.553" height="28.95"/>
<rect x="828.735" y="267.096" fill="#FFFFFF" stroke="#231F20" stroke-miterlimit="10" width="5.448" height="23.102"/>
<rect x="834.184" y="267.096" fill="#FFFFFF" stroke="#231F20" stroke-miterlimit="10" width="5.448" height="23.102"/>
<rect x="839.632" y="267.096" fill="#FFFFFF" stroke="#231F20" stroke-miterlimit="10" width="5.446" height="23.102"/>
<rect x="845.078" y="267.096" fill="#FFFFFF" stroke="#231F20" stroke-miterlimit="10" width="5.447" height="23.102"/>
<rect x="850.525" y="267.096" fill="#FFFFFF" stroke="#231F20" stroke-miterlimit="10" width="5.448" height="23.102"/>
<rect x="855.974" y="267.096" fill="#FFFFFF" stroke="#231F20" stroke-miterlimit="10" width="5.448" height="23.102"/>
<rect x="861.422" y="267.096" fill="#FFFFFF" stroke="#231F20" stroke-miterlimit="10" width="5.446" height="23.102"/>
<rect x="866.868" y="267.096" fill="#FFFFFF" stroke="#231F20" stroke-miterlimit="10" width="5.447" height="23.102"/>
<rect x="872.315" y="267.096" fill="#FFFFFF" stroke="#231F20" stroke-miterlimit="10" width="5.448" height="23.102"/>
<rect x="877.764" y="267.096" fill="#FFFFFF" stroke="#231F20" stroke-miterlimit="10" width="5.448" height="23.102"/>
<text transform="matrix(1 0 0 1 271.1191 51.8838)"><tspan x="0" y="0" fill="#F15A29" font-family="'MyriadPro-Regular'" font-size="16.3405">339</tspan><tspan x="0" y="16.34" font-family="'SeoulHangangL'" font-size="13.6171"><a xlink:href='http://dmlab.snu.ac.kr' target='_blank'>데마랩</a></tspan><tspan x="0" y="29.413" fill="#808285" font-family="'SeoulHangangL'" font-size="10.8937">조성준 교수님</tspan></text>
<text transform="matrix(1 0 0 1 271.1191 125.5708)"><tspan x="0" y="0" fill="#F15A29" font-family="'MyriadPro-Regular'" font-size="16.3405">338</tspan>/<tspan x="30" y="0" fill="#F15A29" font-family="'MyriadPro-Regular'" font-size="16.3405">411</tspan><tspan x="0" y="16.34" font-family="'SeoulHangangL'" font-size="13.6171"><a xlink:href='http://optima.snu.ac.kr/' target='_blank'>수리방</a>/<a xlink:href='http://polytope.snu.ac.kr/' target='_blank'>최적화방</a></tspan><tspan x="0" y="29.413" fill="#808285" font-family="'SeoulHangangL'" font-size="10.8937">정성진/홍성필 교수님</tspan></text>
<text transform="matrix(1 0 0 1 550.8721 125.5708)"><tspan x="0" y="0" fill="#F15A29" font-family="'MyriadPro-Regular'" font-size="16.3405">336</tspan><tspan x="0" y="16.34" font-family="'SeoulHangangL'" font-size="13.6171"><a xlink:href='http://inno.snu.ac.kr/' target='_blank'>기경방</a></tspan><tspan x="0" y="29.413" fill="#808285" font-family="'SeoulHangangL'" font-size="10.8937">박용태 교수님</tspan></text>
<text transform="matrix(1 0 0 1 550.8721 52.0386)"><tspan x="0" y="0" fill="#F15A29" font-family="'MyriadPro-Regular'" font-size="16.3405">337</tspan><tspan x="0" y="16.34" font-family="'SeoulHangangL'" font-size="13.6171"><a xlink:href='http://kiruda.snu.ac.kr/' target='_blank'>투자방</a></tspan><tspan x="0" y="29.413" fill="#808285" font-family="'SeoulHangangL'" font-size="10.8937">오형식 교수님</tspan></text>
<text transform="matrix(1 0 0 1 22.6045 475.5303)"><tspan x="0" y="0" fill="#F15A29" font-family="'MyriadPro-Regular'" font-size="16.3405">311</tspan><tspan x="0" y="16.341" font-family="'SeoulHangangL'" font-size="13.6171"><a xlink:href='http://slcf.snu.ac.kr/' target='_blank'>통계방</a></tspan><tspan x="0" y="29.413" fill="#808285" font-family="'SeoulHangangL'" font-size="10.8937">이재욱 교수님</tspan></text>
<text transform="matrix(1 0 0 1 151.2891 476.2109)"><tspan x="0" y="0" fill="#F15A29" font-family="'MyriadPro-Regular'" font-size="16.3405">312</tspan><tspan x="0" y="16.341" font-family="'SeoulHangangL'" font-size="13.6171"><a xlink:href='http://his.snu.ac.kr/' target='_blank'>HIS랩</a></tspan><tspan x="0" y="29.413" fill="#808285" font-family="'SeoulHangangL'" font-size="10.8937">윤명환 교수님</tspan></text>
<text transform="matrix(1 0 0 1 230.9482 476.8916)"><tspan x="0" y="0" fill="#F15A29" font-family="'MyriadPro-Regular'" font-size="16.3405">313</tspan><tspan x="0" y="16.341" font-family="'SeoulHangangL'" font-size="13.6171"><a xlink:href='#'>삶향상</a></tspan><tspan x="0" y="29.413" fill="#808285" font-family="'SeoulHangangL'" font-size="10.8937">박우진 교수님</tspan></text>
<text transform="matrix(1 0 0 1 307.5439 477.5723)"><tspan x="0" y="0" fill="#F15A29" font-family="'MyriadPro-Regular'" font-size="16.3405">314</tspan><tspan x="0" y="16.341" font-family="'SeoulHangangL'" font-size="13.6171"><a xlink:href='http://imlab.snu.ac.kr/' target='_blank'>정보방</a></tspan><tspan x="0" y="29.413" fill="#808285" font-family="'SeoulHangangL'" font-size="10.8937">박종헌 교수님</tspan></text>
<text transform="matrix(1 0 0 1 462.0981 478.2539)"><tspan x="0" y="0" fill="#F15A29" font-family="'MyriadPro-Regular'" font-size="16.3405">317</tspan><tspan x="0" y="16.341" font-family="'SeoulHangangL'" font-size="13.6171"><a xlink:href='http://ultra.snu.ac.kr/' target='_blank'>자동화방</a></tspan><tspan x="0" y="29.413" fill="#808285" font-family="'SeoulHangangL'" font-size="10.8937">박진우 교수님</tspan></text>
<text transform="matrix(1 0 0 1 541.3398 478.9346)"><tspan x="0" y="0" fill="#F15A29" font-family="'MyriadPro-Regular'" font-size="16.3405">318</tspan><tspan x="0" y="16.341" font-family="'SeoulHangangL'" font-size="13.6171"><a xlink:href='http://product.snu.ac.kr/' target='_blank'>제품방</a></tspan><tspan x="0" y="29.413" fill="#808285" font-family="'SeoulHangangL'" font-size="10.8937">홍유석 교수님</tspan></text>ㄴ
<text transform="matrix(1 0 0 1 25.3281 322.7891)"><tspan x="0" y="0" fill="#F15A29" font-family="'MyriadPro-Regular'" font-size="16.3405">309</tspan><tspan x="0" y="16.34" font-family="'SeoulHangangL'" font-size="13.6171">세미나실</tspan></text>
<text transform="matrix(1 0 0 1 815.8018 326.4229)"><tspan x="0" y="0" fill="#F26522" font-family="'MyriadPro-Regular'" font-size="16.3405">327</tspan><tspan x="0" y="16.34" font-family="'SeoulHangangL'" font-size="13.6171">세미나실</tspan></text>
<text transform="matrix(1 0 0 1 22.6045 408.125)" fill="#F15A29" font-family="'MyriadPro-Regular'" font-size="16.3405">310</text>
<text transform="matrix(1 0 0 1 18.5186 33.6553)" fill="#F15A29" font-family="'MyriadPro-Regular'" font-size="16.3405">301</text>
<rect x="91.713" y="15.195" fill="#FFFFFF" stroke="#231F20" stroke-miterlimit="10" width="70.468" height="73.377"/>
<rect x="752.142" y="20.563" fill="#FFFFFF" stroke="#231F20" stroke-miterlimit="10" width="63.66" height="73.377"/>
<text transform="matrix(1 0 0 1 618.2764 479.6152)"><tspan x="0" y="0" fill="#F15A29" font-family="'MyriadPro-Regular'" font-size="16.3405">319</tspan><tspan x="0" y="16.341" font-family="'SeoulHangangL'" font-size="13.6171"><a xlink:href='http://fre.snu.ac.kr/' target='_blank'>금융방</a></tspan><tspan x="0" y="29.413" fill="#808285" font-family="'SeoulHangangL'" font-size="10.8937">장우진 교수님</tspan></text>
<rect x="301.076" y="346.012" fill="#E6FCFB" stroke="#231F20" stroke-miterlimit="10" width="78.979" height="71.86"/>
<rect x="301.076" y="310.968" fill="#FFFFFF" stroke="#231F20" stroke-miterlimit="10" width="78.979" height="35.93"/>
<text transform="matrix(1 0 0 1 307.2017 325.5117)"><tspan x="0" y="0" fill="#F15A29" font-family="'MyriadPro-Regular'" font-size="16.3405">316</tspan><tspan x="0" y="16.34" font-family="'SeoulHangangL'" font-size="13.6171">향수방</tspan></text>
<rect x="531.205" y="316.055" fill="#FFFFFF" stroke="#231F20" stroke-miterlimit="10" width="160.682" height="101.817"/>
<text transform="matrix(1 0 0 1 537.3301 365.0762)"><tspan x="0" y="0" fill="#F15A29" font-family="'MyriadPro-Regular'" font-size="16.3405">321</tspan><tspan x="0" y="16.34" font-family="'SeoulHangangL'" font-size="13.6171">공동실험실</tspan></text><text transform="matrix(1 0 0 1 815.8018 395.8711)"><tspan x="0" y="0" fill="#F26522" font-family="'MyriadPro-Regular'" font-size="16.3405">326</tspan><tspan x="0" y="16.341" font-family="'SeoulHangangL'" font-size="13.6171">과방</tspan></text>
<text transform="matrix(1 0 0 1 815.8027 488.1553)"><tspan x="0" y="0" fill="#F26522" font-family="'MyriadPro-Regular'" font-size="16.3405">325</tspan><tspan x="0" y="16.341" font-family="'SeoulHangangL'" font-size="13.6171">과전</tspan></text>
<text transform="matrix(1 0 0 1 18.0527 68.9043)"><tspan x="0" y="0" fill="#F15A29" font-family="'MyriadPro-Regular'" font-size="16.3405">302</tspan><tspan x="0" y="11.438" font-family="'SeoulHangangL'" font-size="9.532">조성준 교수님</tspan><tspan x="53.665" y="11.438" font-family="'SeoulHangangL'" font-size="8.1703"> </tspan></text>
<text transform="matrix(1 0 0 1 18.5195 215.9688)"><tspan x="0" y="0" fill="#F15A29" font-family="'MyriadPro-Regular'" font-size="16.3405">306</tspan><tspan x="0" y="11.438" font-family="'SeoulHangangL'" font-size="9.532">박종헌 교수님</tspan><tspan x="53.76" y="11.438" font-family="'SeoulHangangL'" font-size="8.1703"> </tspan></text>
<text transform="matrix(1 0 0 1 17.8413 104.3086)"><tspan x="0" y="0" fill="#F15A29" font-family="'MyriadPro-Regular'" font-size="16.3405">303</tspan><tspan x="0" y="11.438" font-family="'SeoulHangangL'" font-size="9.532">윤명환 교수님</tspan><tspan x="53.76" y="11.438" font-family="'SeoulHangangL'" font-size="8.1703"> </tspan></text>
<text transform="matrix(1 0 0 1 18.3799 143.7983)"><tspan x="0" y="0" fill="#F15A29" font-family="'MyriadPro-Regular'" font-size="16.3405">304</tspan><tspan x="0" y="11.438" font-family="'SeoulHangangL'" font-size="9.532">홍유석 교수님</tspan><tspan x="53.665" y="11.438" font-family="'SeoulHangangL'" font-size="8.1703"> </tspan></text>
<text transform="matrix(1 0 0 1 18.1685 180.5645)"><tspan x="0" y="0" fill="#F15A29" font-family="'MyriadPro-Regular'" font-size="16.3405">305</tspan><tspan x="0" y="11.438" font-family="'SeoulHangangL'" font-size="9.532">장우진 교수님</tspan><tspan x="53.76" y="11.438" font-family="'SeoulHangangL'" font-size="8.1703"> </tspan></text>
<text transform="matrix(1 0 0 1 829.9717 69.585)"><tspan x="0" y="0" fill="#F15A29" font-family="'MyriadPro-Regular'" font-size="16.3405">329</tspan><tspan x="0" y="11.438" font-family="'SeoulHangangL'" font-size="9.532">오형식 교수님</tspan><tspan x="53.188" y="11.438" font-family="'SeoulHangangL'" font-size="8.1703"> </tspan></text>
<text transform="matrix(1 0 0 1 830.4385 216.6504)"><tspan x="0" y="0" fill="#F15A29" font-family="'MyriadPro-Regular'" font-size="16.3405">333</tspan><tspan x="0" y="11.438" font-family="'SeoulHangangL'" font-size="9.532">강석호 교수님</tspan><tspan x="53.76" y="11.438" font-family="'SeoulHangangL'" font-size="8.1703"> </tspan></text>
<text transform="matrix(1 0 0 1 829.7598 104.9902)"><tspan x="0" y="0" fill="#F15A29" font-family="'MyriadPro-Regular'" font-size="16.3405">330</tspan><tspan x="0" y="11.438" font-family="'SeoulHangangL'" font-size="9.532">이창훈 교수님</tspan><tspan x="53.76" y="11.438" font-family="'SeoulHangangL'" font-size="8.1703"> </tspan></text>
<text transform="matrix(1 0 0 1 830.2988 144.4795)"><tspan x="0" y="0" fill="#F15A29" font-family="'MyriadPro-Regular'" font-size="16.3405">331</tspan><tspan x="0" y="11.438" font-family="'SeoulHangangL'" font-size="9.532">박용태 교수님</tspan><tspan x="54.141" y="11.438" font-family="'SeoulHangangL'" font-size="8.1703"> </tspan></text>
<text transform="matrix(1 0 0 1 830.0869 181.2451)"><tspan x="0" y="0" fill="#F15A29" font-family="'MyriadPro-Regular'" font-size="16.3405">332</tspan><tspan x="0" y="11.438" font-family="'SeoulHangangL'" font-size="9.532">박진우 교수님</tspan><tspan x="53.76" y="11.438" font-family="'SeoulHangangL'" font-size="8.1703"> </tspan></text>
<text transform="matrix(1 0 0 1 830.4375 34.3364)"><tspan x="0" y="0" fill="#F15A29" font-family="'MyriadPro-Regular'" font-size="16.3405">328</tspan><tspan x="0" y="11.438" font-family="'SeoulHangangL'" font-size="9.532">정성진 교수님</tspan><tspan x="52.711" y="11.438" font-family="'SeoulHangangL'" font-size="8.1703"> </tspan></text>
<text transform="matrix(1 0 0 1 96.8203 57.252)" font-family="'SeoulHangangL'" font-size="13.6171">교수회의실</text>
<text transform="matrix(1 0 0 1 307.2017 372.7207)"><tspan x="0" y="0" fill="#F15A29" font-family="'MyriadPro-Regular'" font-size="16.3405">315</tspan><tspan x="0" y="16.341" font-family="'SeoulHangangL'" font-size="13.6171"><a xlink:href='#'>전략방</a></tspan><tspan x="0" y="29.413" fill="#808285" font-family="'SeoulHangangL'" font-size="10.8937">서은석 교수님</tspan></text>
<rect x="301.076" y="262.913" fill="#FFD4F0" stroke="#231F20" stroke-miterlimit="10" width="78.979" height="48.337"/>
<rect x="301.076" y="225.292" fill="#E0F7CD" stroke="#231F20" stroke-miterlimit="10" width="29.957" height="37.275"/>
<rect x="571.304" y="271.512" fill="#E0F7CD" stroke="#231F20" stroke-miterlimit="10" width="29.956" height="37.276"/>
<rect x="661.928" y="234.134" fill="#E0F7CD" stroke="#231F20" stroke-miterlimit="10" width="29.957" height="37.275"/>
<rect x="601.937" y="271.512" fill="#FFD4F0" stroke="#231F20" stroke-miterlimit="10" width="89.95" height="37.276"/>
<rect x="331.033" y="225.208" fill="#FFFFFF" stroke="#231F20" stroke-miterlimit="10" width="49.022" height="37.275"/>
</svg>
